<?xml version="1.0" encoding="utf-8"?>
<!-- Generator: Adobe Illustrator 25.4.1, SVG Export Plug-In . SVG Version: 6.00 Build 0)  -->
<svg version="1.1" id="Layer_1" xmlns="http://www.w3.org/2000/svg" xmlns:xlink="http://www.w3.org/1999/xlink" x="0px" y="0px"
	 viewBox="0 0 36 36" style="enable-background:new 0 0 36 36;" xml:space="preserve">
<style type="text/css">
	.st0{clip-path:url(#SVGID_00000058563551112508334710000002893557982693061017_);}
	.st1{fill:#33334F;}
	.st2{fill:#FFFFFF;}
	.st3{font-family:'MyriadPro-Regular';}
	.st4{font-size:30.1118px;}
</style>
<g>
	<defs>
		<path id="SVGID_1_" d="M8,0h20c4.4,0,8,3.6,8,8v20c0,4.4-3.6,8-8,8H8c-4.4,0-8-3.6-8-8V8C0,3.6,3.6,0,8,0z"/>
	</defs>
	<clipPath id="SVGID_00000183207006985194065550000014641797883848255111_">
		<use xlink:href="#SVGID_1_"  style="overflow:visible;"/>
	</clipPath>
	<g style="clip-path:url(#SVGID_00000183207006985194065550000014641797883848255111_);">
		<path class="st1" d="M8,0h20c4.4,0,8,3.6,8,8v20c0,4.4-3.6,8-8,8H8c-4.4,0-8-3.6-8-8V8C0,3.6,3.6,0,8,0z"/>
		<text transform="matrix(1 0 0 1 7.4608 27.7517)" class="st2 st3 st4">G</text>
	</g>
</g>
</svg>
